HIERARCHY
ROOT Hips
{
	OFFSET 62.890800 8.863803 43.568401
	CHANNELS 6 Xposition Yposition Zposition Zrotation Xrotation Yrotation
	JOINT Chest
	{
		OFFSET -0.160400 1.630001 7.806301
		CHANNELS 6 Xposition Yposition Zposition Zrotation Xrotation Yrotation
		JOINT Chest2
		{
			OFFSET 0.000000 0.000000 3.197998
			CHANNELS 6 Xposition Yposition Zposition Zrotation Xrotation Yrotation
			JOINT Neck
			{
				OFFSET 0.000000 0.000001 7.440701
				CHANNELS 6 Xposition Yposition Zposition Zrotation Xrotation Yrotation
				JOINT Head
				{
					OFFSET 0.000000 0.000000 2.173901
					CHANNELS 6 Xposition Yposition Zposition Zrotation Xrotation Yrotation
					End Site
					{
						OFFSET 0.000000 0.000001 10.420303
					}
				}
			}
			JOINT LeftCollar
			{
				OFFSET 2.426399 -1.880099 4.759399
				CHANNELS 6 Xposition Yposition Zposition Zrotation Xrotation Yrotation
				JOINT LeftShoulder
				{
					OFFSET 4.420197 0.000000 0.000000
					CHANNELS 6 Xposition Yposition Zposition Zrotation Xrotation Yrotation
					JOINT LeftElbow
					{
						OFFSET 0.000000 -0.000001 -10.347099
						CHANNELS 6 Xposition Yposition Zposition Zrotation Xrotation Yrotation
						JOINT LeftWrist
						{
							OFFSET 0.000000 -0.000001 -12.496300
							CHANNELS 6 Xposition Yposition Zposition Zrotation Xrotation Yrotation
							End Site
							{
								OFFSET 0.000000 0.000000 -2.173901
							}
						}
					}
				}
			}
			JOINT RightCollar
			{
				OFFSET -2.781502 -1.903799 5.072601
				CHANNELS 6 Xposition Yposition Zposition Zrotation Xrotation Yrotation
				JOINT RightShoulder
				{
					OFFSET -4.012100 0.000000 0.000000
					CHANNELS 6 Xposition Yposition Zposition Zrotation Xrotation Yrotation
					JOINT RightElbow
					{
						OFFSET 0.000000 -0.000001 -10.346600
						CHANNELS 6 Xposition Yposition Zposition Zrotation Xrotation Yrotation
						JOINT RightWrist
						{
							OFFSET 0.000000 -0.000001 -12.562599
							CHANNELS 6 Xposition Yposition Zposition Zrotation Xrotation Yrotation
							End Site
							{
								OFFSET 0.000000 0.000000 -2.173901
							}
						}
					}
				}
			}
		}
	}
	JOINT LeftHip
	{
		OFFSET 2.047997 -0.047200 -2.693199
		CHANNELS 6 Xposition Yposition Zposition Zrotation Xrotation Yrotation
		JOINT LeftKnee
		{
			OFFSET 0.000000 -0.000001 -18.824400
			CHANNELS 6 Xposition Yposition Zposition Zrotation Xrotation Yrotation
			JOINT LeftAnkle
			{
				OFFSET 0.000000 -0.000002 -19.078199
				CHANNELS 6 Xposition Yposition Zposition Zrotation Xrotation Yrotation
				End Site
				{
					OFFSET 0.000000 -9.342100 0.000001
				}
			}
		}
	}
	JOINT RightHip
	{
		OFFSET -2.129898 -0.022300 -2.538300
		CHANNELS 6 Xposition Yposition Zposition Zrotation Xrotation Yrotation
		JOINT RightKnee
		{
			OFFSET 0.000000 -0.000001 -18.644600
			CHANNELS 6 Xposition Yposition Zposition Zrotation Xrotation Yrotation
			JOINT RightAnkle
			{
				OFFSET 0.000000 -0.000002 -18.801399
				CHANNELS 6 Xposition Yposition Zposition Zrotation Xrotation Yrotation
				End Site
				{
					OFFSET 0.000000 -8.914600 0.000001
				}
			}
		}
	}
}
MOTION
Frames: 6
Frame Time: 0.041667
40.674896 -9.225718 19.036615 245.216031 9.916527 34.205936 -0.160402 1.629995 7.806309 1.652633 23.271551 6.983482 0.000004 0.000001 3.198004 2.475467 -10.887565 0.174365 -0.000008 0.000000 7.440700 -21.005366 21.473200 -12.902286 -0.000003 -0.000003 2.173907 -5.068336 3.673662 -10.607482 2.426405 -1.880102 4.759396 -8.085457 14.101288 17.471025 4.420196 0.000004 -0.000001 -15.078534 28.339717 -73.898754 0.000004 -0.000002 -10.347091 5.934173 -0.595548 1.526929 0.000006 0.000002 -12.496302 -138.493806 173.675223 158.925730 -2.781507 -1.903798 5.072599 13.918192 18.165023 -27.190423 -4.012099 -0.000002 -0.000000 34.524154 -26.937544 115.627303 0.000006 -0.000004 -10.346601 -91.638223 -4.148484 -54.890931 -0.000004 0.000000 -12.562596 58.474602 -30.060885 2.267835 2.047995 -0.047198 -2.693206 122.922710 -37.091639 115.308210 0.000008 0.000001 -18.824404 -2.649303 178.450631 -27.898234 -0.000001 -0.000002 -19.078203 53.380189 -25.498172 35.656845 -2.129896 -0.022300 -2.538303 -138.254954 -10.926534 -73.944215 -0.000006 -0.000000 -18.644598 17.118884 170.749128 67.561547 -0.000001 -0.000000 -18.801392 -39.674445 -7.832129 -56.350136
40.323997 -9.190721 19.132109 245.958227 7.447939 35.562025 -0.160398 1.629996 7.806304 1.400215 22.411439 7.452339 0.000007 0.000000 3.197999 2.598122 -10.583959 0.212939 -0.000001 -0.000007 7.440695 -18.599336 22.136923 -13.236823 -0.000001 0.000008 2.173904 -4.706932 3.991002 -10.258011 2.426401 -1.880104 4.759399 -7.834475 14.241706 17.764740 4.420197 -0.000000 -0.000002 -12.990505 28.813580 -74.368152 0.000012 0.000003 -10.347095 5.924844 -0.501467 1.487920 -0.000008 0.000003 -12.496302 -138.678535 174.587066 155.718409 -2.781501 -1.903806 5.072595 13.387853 18.543159 -27.573216 -4.012096 -0.000001 -0.000002 29.133093 -27.034985 113.942452 0.000005 -0.000002 -10.346596 -91.251368 -3.266873 -50.670404 -0.000002 -0.000004 -12.562599 49.633902 -33.293156 -1.922362 2.048003 -0.047201 -2.693204 122.022955 -36.011995 112.348279 -0.000010 0.000002 -18.824404 -5.472618 179.370439 -27.463926 -0.000002 -0.000001 -19.078199 54.063546 -24.864513 36.474528 -2.129894 -0.022299 -2.538305 -137.502445 -11.345363 -69.987138 -0.000005 -0.000003 -18.644596 17.867765 171.125308 70.386793 -0.000001 -0.000003 -18.801395 -40.582194 -7.667325 -57.440443
39.965298 -9.146720 19.248615 246.918660 5.146705 36.848270 -0.160401 1.629995 7.806304 1.113621 21.374599 7.778360 0.000002 0.000002 3.198000 2.791344 -10.084135 0.369268 0.000001 0.000004 7.440693 -15.913347 22.369742 -13.812137 -0.000008 0.000009 2.173907 -4.401229 4.197201 -9.631181 2.426405 -1.880097 4.759395 -7.467214 14.216900 16.735936 4.420209 0.000000 0.000000 -11.745228 29.079927 -73.530422 0.000001 0.000002 -10.347090 5.625135 -0.358879 1.399368 0.000003 0.000001 -12.496299 -139.176729 175.235238 152.493563 -2.781497 -1.903801 5.072608 12.661333 18.706679 -27.292627 -4.012094 0.000003 0.000004 23.089190 -26.555685 111.420186 0.000004 0.000006 -10.346595 -89.634943 -3.289983 -45.763446 0.000003 0.000000 -12.562598 39.496382 -35.366057 -5.985140 2.047994 -0.047205 -2.693199 122.481684 -38.299493 110.257654 -0.000002 -0.000000 -18.824402 -4.652242 180.052857 -27.171338 -0.000000 -0.000003 -19.078197 54.601386 -24.301280 37.102656 -2.129897 -0.022305 -2.538297 -137.044781 -11.762352 -65.979388 -0.000007 0.000001 -18.644600 18.589758 171.631329 73.213057 0.000005 -0.000005 -18.801399 -41.576990 -7.745437 -58.422651
39.600891 -9.094815 19.383816 248.152357 3.160435 38.075641 -0.160402 1.630003 7.806304 0.607875 20.407466 8.032481 0.000005 -0.000004 3.198001 2.706408 -9.619122 0.357117 -0.000004 0.000005 7.440692 -12.575376 22.058215 -14.555937 -0.000001 0.000000 2.173907 -4.365114 4.157268 -8.100619 2.426399 -1.880100 4.759393 -6.868866 13.858860 15.324983 4.420202 0.000005 0.000000 -10.764261 29.316234 -72.190899 0.000009 0.000000 -10.347092 5.033900 -0.175707 1.374803 -0.000004 -0.000004 -12.496295 -139.130161 176.323437 149.655756 -2.781502 -1.903803 5.072602 11.347767 17.819040 -25.627122 -4.012094 0.000001 0.000004 16.621120 -24.594429 107.499787 0.000010 0.000000 -10.346592 -86.882820 -3.762830 -41.042112 -0.000002 0.000001 -12.562593 29.868813 -35.279758 -10.238888 2.047987 -0.047196 -2.693202 122.594942 -40.517338 108.171188 0.000003 0.000001 -18.824398 -3.829807 180.767076 -26.975323 0.000011 -0.000002 -19.078201 55.213747 -23.694490 38.064829 -2.129900 -0.022299 -2.538297 -137.080039 -12.102087 -62.018568 -0.000005 -0.000007 -18.644596 19.360197 172.315728 75.975261 0.000001 0.000001 -18.801395 -42.645147 -8.031365 -59.225697
39.238396 -9.036614 19.532516 249.047057 0.959077 39.214612 -0.160401 1.630004 7.806304 0.703673 19.299476 8.284220 0.000009 -0.000006 3.198003 2.552494 -9.083352 0.291631 -0.000005 -0.000002 7.440701 -8.753329 21.450718 -15.605910 -0.000012 -0.000001 2.173908 -4.383856 3.918915 -6.601271 2.426402 -1.880097 4.759394 -6.146267 13.961369 13.354801 4.420184 0.000003 -0.000001 -10.261891 28.984434 -70.390324 0.000000 0.000001 -10.347093 4.095839 0.015149 1.323298 0.000003 0.000004 -12.496302 -139.276887 177.202537 146.954867 -2.781503 -1.903799 5.072599 9.932178 17.177832 -23.465373 -4.012100 0.000004 -0.000002 10.539007 -21.967956 103.525662 0.000005 -0.000003 -10.346606 -82.678641 -5.056701 -36.690741 -0.000006 -0.000006 -12.562599 23.073523 -32.831405 -12.546886 2.047997 -0.047198 -2.693203 121.999336 -38.666664 105.297905 0.000003 0.000002 -18.824402 -7.063520 181.761415 -26.940776 0.000002 -0.000001 -19.078203 55.822385 -23.064548 39.075744 -2.129895 -0.022304 -2.538302 -136.881799 -12.402126 -58.197201 0.000000 -0.000001 -18.644594 20.277394 173.270138 78.615054 -0.000004 -0.000001 -18.801403 -43.843951 -8.511340 -59.918224
38.891495 -8.981715 19.681015 249.971591 -1.083326 40.254741 -0.160401 1.630004 7.806303 0.871411 18.244854 8.415112 0.000014 0.000005 3.198001 2.332597 -8.550920 0.267543 -0.000002 0.000002 7.440698 -4.508416 20.446152 -17.000971 -0.000005 0.000003 2.173909 -4.607521 3.442235 -4.750720 2.426402 -1.880102 4.759395 -4.577548 13.145434 10.996221 4.420194 0.000003 0.000012 -10.556810 29.503402 -68.312151 -0.000002 -0.000004 -10.347096 2.850339 0.151615 1.333109 0.000001 -0.000001 -12.496296 -139.405076 178.022406 144.547539 -2.781503 -1.903801 5.072606 8.335545 16.229450 -20.767586 -4.012105 0.000006 -0.000000 5.134150 -18.755093 99.645985 0.000009 0.000001 -10.346597 -77.118956 -6.208175 -32.578800 0.000008 0.000000 -12.562593 23.786757 -29.862263 -11.879007 2.047996 -0.047194 -2.693198 122.105723 -38.858801 102.989711 0.000001 0.000001 -18.824411 -8.109398 182.554509 -26.963654 -0.000005 -0.000001 -19.078201 56.399082 -22.451971 40.097476 -2.129896 -0.022293 -2.538300 -137.225959 -12.403022 -54.698163 -0.000003 0.000003 -18.644600 21.643688 174.719012 81.086462 0.000000 -0.000003 -18.801403 -45.354027 -9.160045 -60.654470
